<?xml version="1.0" encoding="UTF-8"?>
<svg version="1.1" xmlns="http://www.w3.org/2000/svg" width="32" height="32">
<path d="M0 0 C0.93199219 -0.00128906 1.86398437 -0.00257812 2.82421875 -0.00390625 C4.28794922 0.00189453 4.28794922 0.00189453 5.78125 0.0078125 C6.75707031 0.00394531 7.73289062 0.00007812 8.73828125 -0.00390625 C10.13626953 -0.00197266 10.13626953 -0.00197266 11.5625 0 C12.41908203 0.00112793 13.27566406 0.00225586 14.15820312 0.00341797 C16.28125 0.1328125 16.28125 0.1328125 18.28125 1.1328125 C18.28125 2.1228125 18.28125 3.1128125 18.28125 4.1328125 C18.879375 3.6378125 19.4775 3.1428125 20.09375 2.6328125 C22.28125 1.1328125 22.28125 1.1328125 25.28125 1.1328125 C25.28125 2.4528125 25.28125 3.7728125 25.28125 5.1328125 C24.62125 5.1328125 23.96125 5.1328125 23.28125 5.1328125 C21.81472983 8.01300526 20.46077126 10.92589765 19.15625 13.8828125 C18.62644531 15.08164062 18.62644531 15.08164062 18.0859375 16.3046875 C17.82039063 16.90796875 17.55484375 17.51125 17.28125 18.1328125 C16.47300781 18.14699219 15.66476563 18.16117188 14.83203125 18.17578125 C7.79195878 18.21896454 7.79195878 18.21896454 2.03125 21.6953125 C1.45375 22.4996875 0.87625 23.3040625 0.28125 24.1328125 C-0.37875 23.8028125 -1.03875 23.4728125 -1.71875 23.1328125 C-1.71875 21.8128125 -1.71875 20.4928125 -1.71875 19.1328125 C-4.19375 18.1428125 -4.19375 18.1428125 -6.71875 17.1328125 C-6.71875 11.8528125 -6.71875 6.5728125 -6.71875 1.1328125 C-4.28983818 -0.08164341 -2.71155557 0.00357052 0 0 Z " fill="#436FFF" transform="translate(6.71875,3.8671875)"/>
<path d="M0 0 C2.97 0.495 2.97 0.495 6 1 C6 1.99 6 2.98 6 4 C6.598125 3.505 7.19625 3.01 7.8125 2.5 C10 1 10 1 13 1 C13 2.32 13 3.64 13 5 C12.34 5 11.68 5 11 5 C9.53347983 7.88019276 8.17952126 10.79308515 6.875 13.75 C6.52179687 14.54921875 6.16859375 15.3484375 5.8046875 16.171875 C5.53914063 16.77515625 5.27359375 17.3784375 5 18 C3.35 18 1.7 18 0 18 C0 12.06 0 6.12 0 0 Z " fill="#6F56FF" transform="translate(19,4)"/>
<path d="M0 0 C0.33 0.99 0.66 1.98 1 3 C1.598125 2.505 2.19625 2.01 2.8125 1.5 C5 0 5 0 8 0 C8 1.32 8 2.64 8 4 C7.34 4 6.68 4 6 4 C3.91620491 7.84700632 2.50313376 11.90054429 1 16 C0.67 16 0.34 16 0 16 C0 10.72 0 5.44 0 0 Z " fill="#AC2CFF" transform="translate(24,5)"/>
<path d="M0 0 C0.66 0.33 1.32 0.66 2 1 C2 6.61 2 12.22 2 18 C1.01 18 0.02 18 -1 18 C-0.505 9.09 -0.505 9.09 0 0 Z " fill="#8E41FF" transform="translate(22,4)"/>
<path d="M0 0 C0.99 0 1.98 0 3 0 C3 1.32 3 2.64 3 4 C2.34 4 1.68 4 1 4 C0.34 5.32 -0.32 6.64 -1 8 C-1.33 8 -1.66 8 -2 8 C-2.125 5.125 -2.125 5.125 -2 2 C-1.34 1.34 -0.68 0.68 0 0 Z " fill="#CF11FF" transform="translate(29,5)"/>
</svg>
